<?xml version="1.0" encoding="UTF-8"?>
<svg id="Layer_1" xmlns="http://www.w3.org/2000/svg" version="1.1" viewBox="0 0 800 800">
  <!-- Generator: Adobe Illustrator 30.4.0, SVG Export Plug-In . SVG Version: 2.1.4 Build 226)  -->
  <path d="M580.76,342.29c-154.62,29.67-178.68,53.72-208.35,208.35-29.67-154.62-53.72-178.68-208.35-208.35,154.62-29.67,178.68-53.72,208.35-208.35,29.67,154.62,53.72,178.68,208.35,208.35Z"/>
  <path d="M761.03,172.52c-97.33,18.68-112.47,33.82-131.14,131.14-18.68-97.33-33.82-112.47-131.14-131.14,97.33-18.68,112.47-33.82,131.14-131.14,18.68,97.33,33.82,112.47,131.14,131.14Z"/>
  <path d="M689.77,486.72c-66.62,12.78-76.98,23.15-89.76,89.76-12.78-66.62-23.15-76.98-89.76-89.76,66.62-12.78,76.98-23.15,89.76-89.76,12.78,66.62,23.15,76.98,89.76,89.76Z"/>
  <path d="M218.5,172.52c-66.62,12.78-76.98,23.15-89.76,89.76-12.78-66.62-23.15-76.98-89.76-89.76,66.62-12.78,76.98-23.15,89.76-89.76,12.78,66.62,23.15,76.98,89.76,89.76Z"/>
  <path d="M351.83,611.6c-109.11,20.94-126.08,37.91-147.02,147.02-20.94-109.11-37.91-126.08-147.02-147.02,109.11-20.94,126.08-37.91,147.02-147.02,20.94,109.11,37.91,126.08,147.02,147.02Z"/>
</svg>