<?xml version="1.0" encoding="UTF-8"?>
<svg id="Layer_1" xmlns="http://www.w3.org/2000/svg" version="1.1" viewBox="0 0 800 800">
  <!-- Generator: Adobe Illustrator 30.4.0, SVG Export Plug-In . SVG Version: 2.1.4 Build 226)  -->
  <defs>
    <style>
      .st0 {
        fill: none;
        stroke: #000;
        stroke-linecap: round;
        stroke-linejoin: round;
        stroke-width: 50px;
      }
    </style>
  </defs>
  <path class="st0" d="M668.25,549.11c-40.12-49.11-68.45-74.11-68.45-209.5,0-123.98-63.31-168.16-115.42-189.61-6.92-2.84-13.44-9.38-15.55-16.48-9.14-31.11-34.77-58.52-68.83-58.52s-59.7,27.42-68.75,58.55c-2.11,7.19-8.63,13.61-15.55,16.45-52.17,21.48-115.42,65.5-115.42,189.61-.08,135.39-28.41,160.39-68.53,209.5-16.62,20.34-2.06,50.89,27.02,50.89h482.62c28.92,0,43.39-30.64,26.86-50.89Z"/>
  <path class="st0" d="M500,600v25c0,55.23-44.77,100-100,100s-100-44.77-100-100v-25"/>
</svg>