<?xml version="1.0" encoding="UTF-8"?>
<svg id="Layer_1" xmlns="http://www.w3.org/2000/svg" version="1.1" viewBox="0 0 800 800">
  <!-- Generator: Adobe Illustrator 30.4.0, SVG Export Plug-In . SVG Version: 2.1.4 Build 226)  -->
  <defs>
    <style>
      .st0 {
        stroke-linejoin: round;
      }

      .st0, .st1 {
        fill: none;
        stroke: #000;
        stroke-linecap: round;
        stroke-width: 50px;
      }

      .st1 {
        stroke-miterlimit: 15.62;
      }
    </style>
  </defs>
  <path class="st0" d="M200.8,319.67c-.39,6.41-.58,13.05-.58,19.94,0,135.39-28.34,160.39-68.45,209.5-16.62,20.34-2.08,50.89,27.02,50.89h341.22"/>
  <path class="st0" d="M647.66,523.91c-28.88-36.64-47.84-73.52-47.84-184.38,0-123.91-63.31-168.08-115.44-189.53-6.92-2.84-13.44-9.38-15.55-16.48-9.12-31.11-34.73-58.52-68.83-58.52s-59.69,27.42-68.75,58.55c-2.11,7.19-8.63,13.61-15.62,16.45-9.67,3.94-19.07,8.53-28.12,13.73"/>
  <path class="st0" d="M500,600v25c0,55.23-44.77,100-100,100s-100-44.77-100-100v-25"/>
  <line class="st1" x1="700" y1="700" x2="100" y2="100"/>
</svg>