<?xml version="1.0" encoding="UTF-8"?>
<svg id="Flat" xmlns="http://www.w3.org/2000/svg" version="1.1" viewBox="0 0 800 800">
  <!-- Generator: Adobe Illustrator 30.4.0, SVG Export Plug-In . SVG Version: 2.1.4 Build 226)  -->
  <path d="M500,112.5h-200c-34.5.04-62.46,28-62.5,62.5v450c.04,34.5,28,62.46,62.5,62.5h200c34.5-.04,62.46-28,62.5-62.5V175c-.04-34.5-28-62.46-62.5-62.5ZM537.5,625c-.02,20.7-16.8,37.48-37.5,37.5h-200c-20.7-.02-37.48-16.8-37.5-37.5V175c.02-20.7,16.8-37.48,37.5-37.5h200c20.7.02,37.48,16.8,37.5,37.5v450ZM662.51,275v250c0,6.9-5.6,12.5-12.5,12.5s-12.5-5.6-12.5-12.5v-250c0-6.9,5.6-12.5,12.5-12.5s12.5,5.6,12.5,12.5ZM762.51,325v150c0,6.9-5.6,12.5-12.5,12.5s-12.5-5.6-12.5-12.5v-150c0-6.9,5.6-12.5,12.5-12.5s12.5,5.6,12.5,12.5ZM162.5,275v250c0,6.9-5.6,12.5-12.5,12.5s-12.5-5.6-12.5-12.5v-250c0-6.9,5.6-12.5,12.5-12.5s12.5,5.6,12.5,12.5ZM62.5,325v150c0,6.9-5.6,12.5-12.5,12.5s-12.5-5.6-12.5-12.5v-150c0-6.9,5.6-12.5,12.5-12.5s12.5,5.6,12.5,12.5Z"/>
</svg>